# xmcd
#
# Track frame offsets:
#  150
#  19662
#  41743
#  59149
#  85976
#  101036
#  122393
#  137982
#  158168
#  171752
#  190274
#  215317
#  233518
#
# Disc length: 3524 seconds
#
# Revision: 0
# Processed by: cddbd v1.5PL3 Copyright (c) Steve Scherf et al.
# Submitted via: AltoMP3_Maker 3.0
#
DISCID=af0dc20d
DTITLE=Allison Moorer - Miss Fortune
DYEAR=1900
DGENRE=
TTITLE0=Tumbling Down
TTITLE1=Cold In California
TTITLE2=Let Go
TTITLE3=Ruby Jewel Was Here
TTITLE4=Can't Get There From Here
TTITLE5=Steal The Sun
TTITLE6=Up This High
TTITLE7=Hey Jezebel
TTITLE8=Mark My Word
TTITLE9=No Place For A Heart
TTITLE10=Yessirree
TTITLE11=Going Down
TTITLE12=Dying Breed
EXTD=
EXTT0=
EXTT1=
EXTT2=
EXTT3=
EXTT4=
EXTT5=
EXTT6=
EXTT7=
EXTT8=
EXTT9=
EXTT10=
EXTT11=
EXTT12=
PLAYORDER=
